<svg width="1919" height="625" viewBox="0 0 1919 625" fill="none" xmlns="http://www.w3.org/2000/svg">
<path d="M1919 532H0V625H1919V532Z" fill="#D5D4D4"/>
<path d="M1593.47 476.405C1611.5 476.405 1626.12 461.788 1626.12 443.758C1626.12 425.728 1611.5 411.112 1593.47 411.112C1575.44 411.112 1560.83 425.728 1560.83 443.758C1560.83 461.788 1575.44 476.405 1593.47 476.405Z" fill="#90D0BA"/>
<path d="M1596.61 542.082H1589.93L1592.98 438.851L1596.61 542.082Z" fill="#3F3D56"/>
<path d="M1593.56 458.417L1600.75 448.474L1593.47 460.871L1592.68 459.505L1593.56 458.417Z" fill="#3F3D56"/>
<path d="M1592.79 468.446L1585.6 458.503L1592.88 470.9L1593.67 469.513L1592.79 468.446Z" fill="#3F3D56"/>
<path d="M1388.62 445.081C1415.24 445.081 1436.82 423.501 1436.82 396.88C1436.82 370.259 1415.24 348.678 1388.62 348.678C1362.01 348.678 1340.43 370.259 1340.43 396.88C1340.43 423.501 1362.01 445.081 1388.62 445.081Z" fill="#90D0BA"/>
<path d="M1393.28 542.082H1383.4L1387.9 389.625L1393.28 542.082Z" fill="#3F3D56"/>
<path d="M1388.77 418.516L1399.38 403.857L1388.62 422.143L1387.47 420.116L1388.77 418.516Z" fill="#3F3D56"/>
<path d="M1387.62 433.324L1377.02 418.665L1387.75 436.952L1388.92 434.925L1387.62 433.324Z" fill="#3F3D56"/>
<path d="M1201.29 445.081C1227.91 445.081 1249.49 423.501 1249.49 396.88C1249.49 370.259 1227.91 348.678 1201.29 348.678C1174.67 348.678 1153.09 370.259 1153.09 396.88C1153.09 423.501 1174.67 445.081 1201.29 445.081Z" fill="#90D0BA"/>
<path d="M1205.92 542.082H1196.07L1200.57 389.625L1205.92 542.082Z" fill="#3F3D56"/>
<path d="M1201.44 418.516L1212.02 403.857L1201.29 422.143L1200.12 420.116L1201.44 418.516Z" fill="#3F3D56"/>
<path d="M1200.27 433.324L1189.66 418.665L1200.42 436.952L1201.57 434.925L1200.27 433.324Z" fill="#3F3D56"/>
<path d="M276.282 576.222H204.315V580.874H276.282V576.222Z" fill="white"/>
<path d="M480.619 576.222H408.652V580.874H480.619V576.222Z" fill="white"/>
<path d="M684.935 576.222H612.968V580.874H684.935V576.222Z" fill="white"/>
<path d="M889.251 576.222H817.284V580.874H889.251V576.222Z" fill="white"/>
<path d="M1093.57 576.222H1021.6V580.874H1093.57V576.222Z" fill="white"/>
<path d="M1297.9 576.222H1225.94V580.874H1297.9V576.222Z" fill="white"/>
<path d="M1502.22 576.222H1430.25V580.874H1502.22V576.222Z" fill="white"/>
<path d="M1706.53 576.222H1634.57V580.874H1706.53V576.222Z" fill="white"/>
<path d="M1910.87 576.222H1838.9V580.874H1910.87V576.222Z" fill="white"/>
<path d="M602.556 184.314C610.109 184.314 617.555 186.235 624.17 189.905H581.006C587.599 186.235 595.024 184.314 602.556 184.314Z" fill="#D5D4D4" fill-opacity="0.4"/>
<path d="M518.79 178.724C531.421 178.724 543.753 182.607 554.059 189.883H483.542C493.848 182.607 506.159 178.702 518.769 178.724H518.79Z" fill="#D5D4D4" fill-opacity="0.4"/>
<path d="M44.2725 108.032C47.857 44.8943 101.923 -3.3927 165.035 0.192023C214.002 2.96591 255.778 36.6153 268.879 83.8995C270.266 83.8568 271.653 83.7928 273.061 83.7928C323.862 83.7928 368.583 117.271 382.9 166.028C416.611 151.22 456.061 161.035 478.912 189.905H121.808C79.0506 190.033 44.2725 155.444 44.1445 112.684C44.1445 111.702 44.1445 110.721 44.1872 109.718C44.2085 109.163 44.2299 108.587 44.2725 108.032Z" fill="#D5D4D4" fill-opacity="0.4"/>
<path d="M1316.74 261.812C1309.19 261.812 1301.74 263.733 1295.13 267.403H1338.29C1331.7 263.733 1324.27 261.812 1316.74 261.812Z" fill="#D5D4D4" fill-opacity="0.4"/>
<path d="M1400.51 256.243C1387.88 256.243 1375.55 260.127 1365.24 267.403H1435.76C1425.45 260.127 1413.14 256.222 1400.53 256.243H1400.51Z" fill="#D5D4D4" fill-opacity="0.4"/>
<path d="M1875.03 185.531C1871.46 122.393 1817.4 74.1269 1754.26 77.6902C1705.3 80.4641 1663.52 114.114 1650.42 161.398C1649.03 161.355 1647.65 161.291 1646.24 161.291C1595.44 161.291 1550.72 194.77 1536.4 243.526C1502.69 228.718 1463.24 238.533 1440.39 267.403H1797.49C1840.25 267.531 1875.03 232.943 1875.15 190.182C1875.15 189.201 1875.15 188.219 1875.11 187.216C1875.09 186.661 1875.07 186.085 1875.03 185.531Z" fill="#D5D4D4" fill-opacity="0.4"/>
<path d="M999.452 444.313C1000.41 440.6 998.172 436.824 994.46 435.863C994.054 435.757 993.67 435.693 993.243 435.671L953.771 386.317L944 395.429L985.69 442.563C985.648 446.426 988.763 449.562 992.603 449.605C995.825 449.626 998.642 447.45 999.431 444.313H999.452Z" fill="#FFB8B8"/>
<path d="M961.367 394.148L948.885 403.708C947.52 404.753 945.578 404.497 944.533 403.131C944.448 403.003 944.362 402.875 944.277 402.747L936.681 389.049C933.801 385.251 934.548 379.831 938.345 376.95C942.143 374.091 947.52 374.816 950.422 378.593L961.623 389.454C962.861 390.649 962.882 392.612 961.687 393.85C961.581 393.956 961.474 394.063 961.346 394.148H961.367Z" fill="#D5D4D4"/>
<path d="M940.415 364.361C949.17 364.361 956.268 357.263 956.268 348.507C956.268 339.751 949.17 332.653 940.415 332.653C931.66 332.653 924.562 339.751 924.562 348.507C924.562 357.263 931.66 364.361 940.415 364.361Z" fill="#FFB8B8"/>
<path d="M974.276 554.266H982.191L981.423 539.458H969.752L974.276 554.266Z" fill="#FFB8B8"/>
<path d="M972.249 551.684H987.845C993.329 551.684 997.788 556.122 997.788 561.627V561.947H972.249V551.684Z" fill="#2D2926"/>
<path d="M889.848 543.064L896.59 547.224L903.738 534.208L895.588 529.109L889.848 543.064Z" fill="#FFB8B8"/>
<path d="M889.486 539.799L902.757 547.993C907.429 550.873 908.88 556.997 905.978 561.67L905.808 561.947L884.087 548.526L889.486 539.799Z" fill="#2D2926"/>
<path d="M973.699 549.913C972.504 549.913 971.416 549.166 970.99 548.035L942.356 479.563C942.164 479.051 941.61 478.795 941.119 478.987C940.927 479.051 940.756 479.179 940.65 479.349L901.306 541.335C900.516 542.53 898.959 542.957 897.657 542.359L892.28 539.842C890.851 539.159 890.211 537.473 890.851 536.022L923.09 464.157C922.386 462.45 915.516 444.868 926.077 436.183L926.141 436.141L954.753 423.381L955.478 445.316L983.983 544.237C984.431 545.773 983.535 547.395 981.999 547.843C981.978 547.843 981.956 547.843 981.935 547.843L974.467 549.806C974.233 549.87 973.977 549.913 973.721 549.913H973.699Z" fill="#B3ADF7"/>
<path d="M955.158 391.289C954.07 386.915 952.534 382.519 950.464 380.471C949.696 379.724 948.992 378.935 948.331 378.124C946.944 376.374 945.194 374.945 943.189 373.92C943.914 373.515 944.341 373.024 944.341 372.512C944.341 371.082 941.162 369.93 937.236 369.93C933.31 369.93 930.131 371.082 930.131 372.512C930.131 372.853 930.302 373.152 930.558 373.387C925.33 375.521 921.725 380.386 921.212 385.997C920.295 395.834 920.018 408.381 923.239 416.339C925.928 422.911 926.141 430.23 923.837 436.952C923.389 438.296 924.114 439.768 925.458 440.216C926.034 440.408 926.675 440.387 927.251 440.152L955.628 428.715C956.609 428.331 957.249 427.371 957.249 426.325V408.957C957.271 403.003 956.567 397.093 955.158 391.31V391.289Z" fill="#D5D4D4"/>
<path d="M900.858 462.834C904.592 461.959 906.917 458.247 906.042 454.512C905.957 454.107 905.829 453.723 905.658 453.36L927.869 394.788L916.604 391.887L896.057 449.84C892.622 451.589 891.257 455.793 893.006 459.228C894.478 462.109 897.7 463.602 900.836 462.855L900.858 462.834Z" fill="#FFB8B8"/>
<path d="M927.784 405.884L913.553 399.227C911.995 398.501 911.334 396.645 912.059 395.087C912.123 394.959 912.209 394.81 912.273 394.682L920.914 381.623C922.962 377.313 928.125 375.478 932.435 377.526C936.724 379.575 938.559 384.696 936.553 388.985L932.073 403.942C931.582 405.585 929.854 406.524 928.211 406.033C928.061 405.991 927.912 405.927 927.784 405.863V405.884Z" fill="#D5D4D4"/>
<path d="M954.988 344.602C955.713 344.688 956.417 344.56 957.079 344.218C958.252 343.45 958.124 341.722 957.74 340.378C955.734 333.848 950.528 328.791 943.957 326.956C941.695 326.359 938.836 326.38 937.556 328.322C930.856 323.862 921.874 324.95 916.454 330.904C913.809 333.806 912.294 337.604 911.504 341.466C910.139 348.102 904.335 361.801 907.557 367.775C909.691 371.744 919.548 368.65 923.709 370.378C927.869 372.107 932.947 371.915 936.638 369.333C940.33 366.751 942.271 361.651 940.692 357.448C940.074 355.805 939.007 354.396 938.175 352.86C937.342 351.324 936.702 349.553 937.086 347.867C937.663 345.221 950.187 344.496 955.009 344.602H954.988Z" fill="#1C1A23"/>
<path d="M71.967 576.051H0V580.703H71.967V576.051Z" fill="white"/>
<path d="M757.265 305.491C817.078 305.491 865.567 256.999 865.567 197.181C865.567 137.363 817.078 88.8712 757.265 88.8712C697.451 88.8712 648.962 137.363 648.962 197.181C648.962 256.999 697.451 305.491 757.265 305.491Z" fill="#EE707B" fill-opacity="0.6"/>
<path d="M366.791 476.127C384.82 476.127 399.435 461.511 399.435 443.481C399.435 425.451 384.82 410.834 366.791 410.834C348.762 410.834 334.146 425.451 334.146 443.481C334.146 461.511 348.762 476.127 366.791 476.127Z" fill="#90D0BA"/>
<path d="M369.949 541.783H363.249L366.3 438.552L369.949 541.783Z" fill="#3F3D56"/>
<path d="M366.898 458.119L374.067 448.197L366.791 460.572L366.001 459.207L366.898 458.119Z" fill="#3F3D56"/>
<path d="M366.108 468.147L358.918 458.225L366.194 470.601L366.983 469.235L366.108 468.147Z" fill="#3F3D56"/>
<path d="M578.894 444.783C605.513 444.783 627.092 423.202 627.092 396.581C627.092 369.96 605.513 348.379 578.894 348.379C552.275 348.379 530.695 369.96 530.695 396.581C530.695 423.202 552.275 444.783 578.894 444.783Z" fill="#90D0BA"/>
<path d="M583.524 541.783H573.667L578.168 389.326L583.524 541.783Z" fill="#3F3D56"/>
<path d="M579.022 418.217L589.626 403.558L578.894 421.845L577.721 419.818L579.022 418.217Z" fill="#3F3D56"/>
<path d="M577.87 433.025L567.266 418.367L578.019 436.653L579.171 434.626L577.87 433.025Z" fill="#3F3D56"/>
</svg>
